<svg width="1440" height="1024" viewBox="0 0 1440 1024" fill="none" xmlns="http://www.w3.org/2000/svg">
<path d="M757 -305.078C781.4 -415.878 717.833 -469.911 683 -483.078L757 -544.578C831 -606.078 784 -621.578 791 -648.578C798 -675.578 859.5 -530.078 1095 -483.078C1330.5 -436.078 1566.5 -762.078 1510.5 -621.578C1454.5 -481.078 1764 -503.078 1893.5 -375.078C2023 -247.078 1967.5 -146.578 1911.5 -33.5777C1855.5 79.4223 1908 225.422 1798.5 246.922C1689 268.422 1492.5 525.922 1392 353.422C1291.5 180.922 1260.5 376.422 1145.5 185.922C1030.5 -4.5777 767.5 14.9223 742.5 -55.0777C717.5 -125.078 726.5 -166.578 757 -305.078Z" fill="#16FD57" fill-opacity="0.19"/>
<path d="M387.239 1283.8C316.456 1381.89 350.332 1460.54 376.118 1487.6L282.038 1517.36C187.958 1547.13 223.745 1581.43 205.541 1604.91C187.337 1628.38 195.511 1461.38 2.72278 1319.41C-190.066 1177.44 -547.15 1399.03 -434.682 1284.87C-322.213 1170.71 -612.377 1065.82 -673.518 888.131C-734.659 710.44 -640.214 635.086 -539.826 547.746C-439.437 460.406 -422.887 296.593 -314.203 320.325C-205.519 344.057 85.6771 173.152 100.989 382.403C116.3 591.653 230.27 413.653 250.816 646.376C271.363 879.1 518.285 967.443 510.195 1045.91C502.104 1124.38 475.718 1161.18 387.239 1283.8Z" fill="#16FD57" fill-opacity="0.19"/>
</svg>
