<svg xmlns="http://www.w3.org/2000/svg" viewBox="0 0 77 68" width="77" height="68"><path fill-rule="evenodd" clip-rule="evenodd" d="M63.682 53.908c-.115-.09-.11-.573.014-1.074.195-.793.352-.947 1.222-1.2.549-.16.975-.367.947-.461-.028-.094.078-.208.234-.254.157-.046.436-.313.62-.595.312-.48.346-.489.537-.146.265.477 1.105-.012 1.693-.988.235-.39.598-.758.806-.818.21-.061.483-.308.61-.549.296-.563.934-.75 1.063-.313.057.193.48-.264.986-1.064.908-1.439 1.051-1.968.414-1.531-.25.171-.403.1-.502-.233-.078-.264-.285-.438-.46-.387-.249.072-.267.011-.081-.274.13-.201.193-.52.137-.708-.078-.266-.154-.26-.34.025-.335.515-1.176.712-1.296.303-.056-.188-.217-.308-.36-.267-.14.041-.145.206-.007.367.137.16.181.642.099 1.07-.191.992-1.18 1.582-1.93 1.152-.51-.293-.541-.284-.882.246-.195.303-.254.63-.13.724.39.304-.36.362-1.201.093-.446-.142-.915-.229-1.041-.192-.127.037-.17.272-.096.523.115.388-.043.507-1.063.803-.658.192-1.22.27-1.248.176-.028-.096-.343-.235-.7-.31-.472-.1-.57-.077-.364.084.218.17-.001.258-.94.38-.674.088-1.848.363-2.609.612-.83.27-1.412.355-1.454.21-.04-.132-.304-.173-.588-.09-.284.082-.622.068-.752-.033a.35.35 0 00-.444.02c-.115.112-.243.089-.284-.052-.045-.15-.19-.139-.354.027-.469.474-1.569.679-2.18.407-.344-.154-.746-.145-.987.02-.298.205-.394.175-.355-.11.04-.298-.089-.324-.54-.109-.373.178-.866.17-1.334-.022-.408-.167-.97-.237-1.25-.156-.279.08-1.202.174-2.05.207-1.073.042-1.58-.056-1.66-.32-.089-.286-.151-.292-.249-.025-.155.423-1.308.457-2.01.059-.244-.14-.593-.151-.774-.027-.182.125-.856-.01-1.499-.3-.743-.336-1.332-.439-1.616-.281-.247.135-.774.112-1.172-.05-.399-.164-.886-.251-1.082-.194-.45.13-4.083-.677-5.14-1.142-.437-.192-.896-.319-1.023-.282-.126.037-.497-.054-.825-.202-.327-.148-1.126-.43-1.774-.626-.648-.197-1.235-.548-1.303-.78-.08-.269-.247-.337-.463-.19-.441.303-4.432-1.446-5.208-2.283-.334-.36-.782-.577-1.04-.502-.57.166-1.53-.477-1.732-1.16-.084-.284-.275-.483-.423-.44-.499.145-2.277-.938-2.661-1.62-.21-.372-.576-.683-.814-.691-.313-.011-.44-.217-.458-.75-.022-.605-.094-.688-.407-.474-.245.169-.416.135-.484-.094-.057-.196-.297-.388-.532-.429-.235-.04-.53-.266-.654-.502a1.706 1.706 0 00-.648-.633c-.232-.113-.464-.351-.517-.53-.053-.18-.223-.289-.378-.244-.16.047-.228-.068-.157-.263.23-.641-.48-1.577-2.193-2.888-.43-.33-.84-.978-1.06-1.675-.211-.675-.674-1.419-1.139-1.832-.866-.769-1.296-1.882-1.151-2.98.066-.504.003-.72-.21-.718-.212 0-.259-.159-.155-.533.106-.38.039-.596-.234-.751-.285-.162-.308-.333-.09-.666.217-.335.195-.493-.087-.62-.283-.128-.299-.194-.063-.263.174-.05.272-.524.218-1.052-.06-.58.046-1.003.266-1.067.255-.075.274-.415.062-1.132-.244-.827-.212-1.05.165-1.153.653-.179 1.71.154 1.302.41-.191.12-.19.508.004 1.014.172.45.19.854.039.898-.37.108.208 1.99.798 2.592.376.384.431.66.271 1.35-.136.589-.096.888.127.934.181.038.285.191.232.342-.053.15.326.572.842.937.794.562.918.763.806 1.31-.11.537-.073.603.224.4.323-.222.86.172 1.165.856.054.12.321.467.595.77.273.304.537.691.587.86.05.17.257.317.458.327.282.015.306.085.106.305-.185.204.07.43.888.79.781.341 1.139.65 1.117.962-.018.272.239.592.632.786 1.04.514 1.39 1.36.841 2.024-.399.484-.399.545.003.432.257-.071.513.026.57.216.075.256.265.258.724.01.378-.204.666-.24.731-.094.06.134.168.337.242.452.073.114.179.306.234.426.055.12.28.166.5.102.22-.063.43-.007.47.126.04.132-.054.215-.208.184-.153-.032-.16.122-.014.343.145.22.39.32.544.22.351-.228 1.293.047 1.53.447.098.167.44.38.758.472.417.122.579.346.58.802 0 .52.053.568.29.267.23-.29.713-.196 2.323.456 1.118.453 2.07.952 2.114 1.11.045.156.178.257.296.222.343-.1 3.293 1.177 3.376 1.46.042.142.402.405.801.585.48.216.633.22.455.012-.481-.563.317-.746 1.368-.313.563.233 1.33.444 1.702.471 1.004.07 1.872.28 2.208.532.163.122.5.164.75.091.248-.072.875.024 1.393.214.517.19 1.161.28 1.431.202.27-.079.537.01.592.199.064.216.355.267.792.14.38-.11 1.053-.14 1.497-.065.444.074 1.435.171 2.203.216.768.045 1.427.188 1.466.317.038.13.296.17.573.09.277-.08.617-.014.755.147a.447.447 0 00.58.07c.18-.125.687-.214 1.126-.2.633.02.8.14.802.58.002.306.034.408.072.227.081-.393.96-.691 1.288-.437.128.1.497.112.82.029.324-.084.454-.057.29.06-.416.295-.26.654.224.513.22-.064.428-.017.464.105.036.121.227.11.425-.027.424-.29.314-.923-.137-.791-.17.05-.251 0-.18-.112.073-.11.427-.085.788.057.371.146.622.144.578-.005-.095-.322.866-.633 1.187-.383.127.099.464.112.748.03.381-.111.57.012.723.47l.206.62.079-.667c.063-.538.217-.684.79-.753.39-.048.813.035.94.183.127.149.32.184.427.08.108-.106.471-.151.807-.101.419.061.588.015.54-.149-.087-.295 2.173-.673 2.516-.42.13.095.363.048.52-.104.183-.178.245-.165.174.036-.147.416 2.484-.514 2.792-.987.32-.491 1.248-.716 1.19-.288-.034.247.177.276.72.1.422-.136.732-.368.69-.514a1.887 1.887 0 01-.028-.643c.034-.254-.239-.38-.835-.383-.954-.007-1.136-.187-.765-.757.182-.28.034-.34-.649-.262-.486.055-1.03.017-1.206-.085-.57-.328-1.328-2.738-.901-2.862.444-.13 1.406.98 1.263 1.456-.176.586.175.467.452-.153.205-.458.286-.478 1.328-.324.755.11 1.22.353 1.45.758.207.363.458.514.644.387.391-.27.876.455.594.887-.259.398.647.718 1.713.605.86-.092 1.827.777 1.519 1.364-.151.287-.122.365.112.297.19-.055.303.1.283.391-.018.267.111.514.287.55.503.104.547.662.061.765-.508.108-.918.984-.54 1.155.142.064.324-.068.406-.291.106-.293.174-.325.24-.115.19.618-.7 2-1.622 2.516-.546.305-.902.667-.845.86.11.37-.284.57-.614.314-.116-.09-.077-.26.088-.377.204-.145.168-.18-.111-.113-.227.056-.63.338-.898.627-.312.337-.515.433-.564.267-.042-.143-.213-.171-.38-.063a.406.406 0 00-.131.52c.207.392-.118.812-1.116 1.443-.612.387-.824.421-1.156.187-.362-.255-.394-.235-.285.185.245.944-.818 1.707-1.689 1.213-.392-.223-.493-.178-.897.403-.25.36-.55.58-.666.49zm-1.41-.365c-.257-.056-.332-.175-.193-.31.124-.12.339-.085.478.078.292.342.278.354-.284.232zm1.158-7.352c-.12-.135-.143.01-.05.324.092.313.19.424.218.246a.792.792 0 00-.168-.57zm-4.574.025c-.102-.047-.214.123-.247.377-.049.366-.01.384.186.084.137-.208.164-.415.061-.461zm-9.168.693c-.14-.163-.301-.283-.359-.267-.057.017-.06.185-.004.373.056.187.217.308.36.266.14-.04.142-.208.003-.372zm1.37-.568c-.14-.157-.186-.085-.12.184.059.244.161.36.227.259s.018-.301-.108-.443zM6.843 27.625c.039-.456-.486-.21-.55.258-.033.25.057.338.235.226.16-.1.301-.318.315-.484z" stroke="#000" stroke-width="2"/></svg>
